<mxfile host="app.diagrams.net" modified="2023-04-27T16:25:44.530Z" agent="Mozilla/5.0 (Windows NT 10.0; Win64; x64) AppleWebKit/537.36 (KHTML, like Gecko) Chrome/107.0.0.0 Safari/537.36" etag="clFu6RDoq5kTKwgA1qwy" version="21.2.3" type="device">
  <diagram name="Seite-1" id="Cd0mpGgeBX_sEMvPVesp">
    <mxGraphModel dx="1034" dy="381" grid="1" gridSize="10" guides="1" tooltips="1" connect="1" arrows="1" fold="1" page="1" pageScale="1" pageWidth="827" pageHeight="1169" math="0" shadow="0">
      <root>
        <mxCell id="0" />
        <mxCell id="1" parent="0" />
        <mxCell id="SRPFa-ZAjZUwLeveniBg-5" value="" style="edgeStyle=orthogonalEdgeStyle;rounded=0;orthogonalLoop=1;jettySize=auto;html=1;" parent="1" source="SRPFa-ZAjZUwLeveniBg-3" target="SRPFa-ZAjZUwLeveniBg-4" edge="1">
          <mxGeometry relative="1" as="geometry" />
        </mxCell>
        <mxCell id="SRPFa-ZAjZUwLeveniBg-9" value="" style="edgeStyle=orthogonalEdgeStyle;rounded=0;orthogonalLoop=1;jettySize=auto;html=1;" parent="1" source="SRPFa-ZAjZUwLeveniBg-3" target="SRPFa-ZAjZUwLeveniBg-8" edge="1">
          <mxGeometry relative="1" as="geometry" />
        </mxCell>
        <mxCell id="SRPFa-ZAjZUwLeveniBg-26" value="" style="edgeStyle=orthogonalEdgeStyle;rounded=0;orthogonalLoop=1;jettySize=auto;html=1;" parent="1" source="SRPFa-ZAjZUwLeveniBg-3" target="SRPFa-ZAjZUwLeveniBg-20" edge="1">
          <mxGeometry relative="1" as="geometry" />
        </mxCell>
        <mxCell id="SRPFa-ZAjZUwLeveniBg-3" value="Mixture_20230426" style="ellipse;whiteSpace=wrap;html=1;aspect=fixed;fillColor=#fff2cc;strokeColor=#d6b656;" parent="1" vertex="1">
          <mxGeometry x="380" y="340" width="117" height="119" as="geometry" />
        </mxCell>
        <mxCell id="SRPFa-ZAjZUwLeveniBg-12" value="" style="edgeStyle=orthogonalEdgeStyle;rounded=0;orthogonalLoop=1;jettySize=auto;html=1;" parent="1" source="SRPFa-ZAjZUwLeveniBg-4" target="SRPFa-ZAjZUwLeveniBg-11" edge="1">
          <mxGeometry relative="1" as="geometry" />
        </mxCell>
        <mxCell id="SRPFa-ZAjZUwLeveniBg-15" value="" style="edgeStyle=orthogonalEdgeStyle;rounded=0;orthogonalLoop=1;jettySize=auto;html=1;" parent="1" source="SRPFa-ZAjZUwLeveniBg-4" target="SRPFa-ZAjZUwLeveniBg-14" edge="1">
          <mxGeometry relative="1" as="geometry" />
        </mxCell>
        <mxCell id="SRPFa-ZAjZUwLeveniBg-4" value="Mixture" style="ellipse;whiteSpace=wrap;html=1;fillColor=#f8cecc;strokeColor=#b85450;" parent="1" vertex="1">
          <mxGeometry x="398.5" y="200" width="80" height="80" as="geometry" />
        </mxCell>
        <mxCell id="SRPFa-ZAjZUwLeveniBg-6" value="is of type" style="text;html=1;strokeColor=none;fillColor=none;align=center;verticalAlign=middle;whiteSpace=wrap;rounded=0;" parent="1" vertex="1">
          <mxGeometry x="440" y="300" width="60" height="30" as="geometry" />
        </mxCell>
        <mxCell id="SRPFa-ZAjZUwLeveniBg-8" value="Object" style="whiteSpace=wrap;html=1;fillColor=#d5e8d4;strokeColor=#82b366;" parent="1" vertex="1">
          <mxGeometry x="181.5" y="369.5" width="120" height="60" as="geometry" />
        </mxCell>
        <mxCell id="SRPFa-ZAjZUwLeveniBg-10" value="is a" style="text;html=1;strokeColor=none;fillColor=none;align=center;verticalAlign=middle;whiteSpace=wrap;rounded=0;" parent="1" vertex="1">
          <mxGeometry x="314" y="380" width="60" height="20" as="geometry" />
        </mxCell>
        <mxCell id="SRPFa-ZAjZUwLeveniBg-11" value="Object Type" style="whiteSpace=wrap;html=1;fillColor=#d5e8d4;strokeColor=#82b366;" parent="1" vertex="1">
          <mxGeometry x="181.5" y="210" width="120" height="60" as="geometry" />
        </mxCell>
        <mxCell id="SRPFa-ZAjZUwLeveniBg-13" value="is a" style="text;html=1;strokeColor=none;fillColor=none;align=center;verticalAlign=middle;whiteSpace=wrap;rounded=0;" parent="1" vertex="1">
          <mxGeometry x="324" y="220" width="60" height="20" as="geometry" />
        </mxCell>
        <mxCell id="SRPFa-ZAjZUwLeveniBg-18" value="" style="edgeStyle=orthogonalEdgeStyle;rounded=0;orthogonalLoop=1;jettySize=auto;html=1;" parent="1" source="SRPFa-ZAjZUwLeveniBg-14" target="SRPFa-ZAjZUwLeveniBg-17" edge="1">
          <mxGeometry relative="1" as="geometry" />
        </mxCell>
        <mxCell id="SRPFa-ZAjZUwLeveniBg-37" value="" style="edgeStyle=orthogonalEdgeStyle;rounded=0;orthogonalLoop=1;jettySize=auto;html=1;" parent="1" source="SRPFa-ZAjZUwLeveniBg-14" target="SRPFa-ZAjZUwLeveniBg-36" edge="1">
          <mxGeometry relative="1" as="geometry" />
        </mxCell>
        <mxCell id="SRPFa-ZAjZUwLeveniBg-14" value="Ratio" style="ellipse;whiteSpace=wrap;html=1;fillColor=#f8cecc;strokeColor=#b85450;" parent="1" vertex="1">
          <mxGeometry x="600" y="200" width="80" height="80" as="geometry" />
        </mxCell>
        <mxCell id="SRPFa-ZAjZUwLeveniBg-16" value="has property type" style="text;html=1;strokeColor=none;fillColor=none;align=center;verticalAlign=middle;whiteSpace=wrap;rounded=0;" parent="1" vertex="1">
          <mxGeometry x="480" y="210" width="113" height="30" as="geometry" />
        </mxCell>
        <mxCell id="SRPFa-ZAjZUwLeveniBg-17" value="Property Type" style="whiteSpace=wrap;html=1;fillColor=#d5e8d4;strokeColor=#82b366;" parent="1" vertex="1">
          <mxGeometry x="750" y="210" width="120" height="60" as="geometry" />
        </mxCell>
        <mxCell id="SRPFa-ZAjZUwLeveniBg-19" value="is a" style="text;html=1;strokeColor=none;fillColor=none;align=center;verticalAlign=middle;whiteSpace=wrap;rounded=0;" parent="1" vertex="1">
          <mxGeometry x="680" y="220" width="60" height="20" as="geometry" />
        </mxCell>
        <mxCell id="SRPFa-ZAjZUwLeveniBg-24" value="" style="edgeStyle=orthogonalEdgeStyle;rounded=0;orthogonalLoop=1;jettySize=auto;html=1;" parent="1" source="SRPFa-ZAjZUwLeveniBg-20" target="SRPFa-ZAjZUwLeveniBg-23" edge="1">
          <mxGeometry relative="1" as="geometry" />
        </mxCell>
        <mxCell id="SRPFa-ZAjZUwLeveniBg-28" value="" style="edgeStyle=orthogonalEdgeStyle;rounded=0;orthogonalLoop=1;jettySize=auto;html=1;" parent="1" source="SRPFa-ZAjZUwLeveniBg-20" target="SRPFa-ZAjZUwLeveniBg-14" edge="1">
          <mxGeometry relative="1" as="geometry" />
        </mxCell>
        <mxCell id="SRPFa-ZAjZUwLeveniBg-46" value="" style="edgeStyle=orthogonalEdgeStyle;rounded=0;orthogonalLoop=1;jettySize=auto;html=1;" parent="1" source="SRPFa-ZAjZUwLeveniBg-20" target="SRPFa-ZAjZUwLeveniBg-45" edge="1">
          <mxGeometry relative="1" as="geometry" />
        </mxCell>
        <mxCell id="SRPFa-ZAjZUwLeveniBg-20" value="Ratio" style="ellipse;whiteSpace=wrap;html=1;fillColor=#fff2cc;strokeColor=#d6b656;" parent="1" vertex="1">
          <mxGeometry x="600" y="359.5" width="80" height="80" as="geometry" />
        </mxCell>
        <mxCell id="SRPFa-ZAjZUwLeveniBg-23" value="Property" style="whiteSpace=wrap;html=1;fillColor=#d5e8d4;strokeColor=#82b366;" parent="1" vertex="1">
          <mxGeometry x="750" y="369.5" width="120" height="60" as="geometry" />
        </mxCell>
        <mxCell id="SRPFa-ZAjZUwLeveniBg-25" value="is a" style="text;html=1;strokeColor=none;fillColor=none;align=center;verticalAlign=middle;whiteSpace=wrap;rounded=0;" parent="1" vertex="1">
          <mxGeometry x="680" y="380" width="60" height="20" as="geometry" />
        </mxCell>
        <mxCell id="SRPFa-ZAjZUwLeveniBg-27" value="has property" style="text;html=1;strokeColor=none;fillColor=none;align=center;verticalAlign=middle;whiteSpace=wrap;rounded=0;" parent="1" vertex="1">
          <mxGeometry x="506" y="369.5" width="80" height="30" as="geometry" />
        </mxCell>
        <mxCell id="SRPFa-ZAjZUwLeveniBg-29" value="is of type" style="text;html=1;strokeColor=none;fillColor=none;align=center;verticalAlign=middle;whiteSpace=wrap;rounded=0;" parent="1" vertex="1">
          <mxGeometry x="631" y="300" width="80" height="30" as="geometry" />
        </mxCell>
        <mxCell id="SRPFa-ZAjZUwLeveniBg-42" value="" style="edgeStyle=orthogonalEdgeStyle;rounded=0;orthogonalLoop=1;jettySize=auto;html=1;" parent="1" source="SRPFa-ZAjZUwLeveniBg-36" target="SRPFa-ZAjZUwLeveniBg-39" edge="1">
          <mxGeometry relative="1" as="geometry" />
        </mxCell>
        <mxCell id="SRPFa-ZAjZUwLeveniBg-36" value="Real" style="whiteSpace=wrap;html=1;" parent="1" vertex="1">
          <mxGeometry x="580" y="80" width="120" height="30" as="geometry" />
        </mxCell>
        <mxCell id="SRPFa-ZAjZUwLeveniBg-38" value="is of data type" style="text;html=1;strokeColor=none;fillColor=none;align=center;verticalAlign=middle;whiteSpace=wrap;rounded=0;" parent="1" vertex="1">
          <mxGeometry x="629" y="150" width="113" height="30" as="geometry" />
        </mxCell>
        <mxCell id="SRPFa-ZAjZUwLeveniBg-39" value="Data Type" style="whiteSpace=wrap;html=1;fillColor=#d5e8d4;strokeColor=#82b366;" parent="1" vertex="1">
          <mxGeometry x="750" y="65" width="120" height="60" as="geometry" />
        </mxCell>
        <mxCell id="SRPFa-ZAjZUwLeveniBg-43" value="is a" style="text;html=1;strokeColor=none;fillColor=none;align=center;verticalAlign=middle;whiteSpace=wrap;rounded=0;" parent="1" vertex="1">
          <mxGeometry x="692" y="73" width="60" height="20" as="geometry" />
        </mxCell>
        <mxCell id="SRPFa-ZAjZUwLeveniBg-45" value="3" style="whiteSpace=wrap;html=1;" parent="1" vertex="1">
          <mxGeometry x="580" y="529.5" width="120" height="30.5" as="geometry" />
        </mxCell>
        <mxCell id="SRPFa-ZAjZUwLeveniBg-47" value="has value" style="text;html=1;strokeColor=none;fillColor=none;align=center;verticalAlign=middle;whiteSpace=wrap;rounded=0;" parent="1" vertex="1">
          <mxGeometry x="631" y="470" width="80" height="30" as="geometry" />
        </mxCell>
      </root>
    </mxGraphModel>
  </diagram>
</mxfile>
